<mxfile host="app.diagrams.net" modified="2022-04-17T20:07:47.887Z" agent="5.0 (X11)" etag="ap67mRTOLjzp7IBjene2" version="17.4.5" type="github" pages="4">
  <diagram id="0XIh67gfJAI99I8Qi5kG" name="Page-1">
    <mxGraphModel dx="832" dy="452" grid="1" gridSize="10" guides="1" tooltips="1" connect="1" arrows="1" fold="1" page="1" pageScale="1" pageWidth="650" pageHeight="400" background="#283618" math="0" shadow="0">
      <root>
        <mxCell id="0" />
        <mxCell id="1" parent="0" />
        <mxCell id="rpJfb1rqAlhAVGrmwUFo-11" style="edgeStyle=none;rounded=0;orthogonalLoop=1;jettySize=auto;html=1;exitX=1;exitY=0;exitDx=0;exitDy=0;entryX=0;entryY=1;entryDx=0;entryDy=0;endArrow=none;endFill=0;labelBackgroundColor=#283618;strokeColor=#DDA15E;fontColor=#FEFAE0;strokeWidth=2;shadow=1;" edge="1" parent="1" source="rpJfb1rqAlhAVGrmwUFo-1" target="rpJfb1rqAlhAVGrmwUFo-3">
          <mxGeometry relative="1" as="geometry" />
        </mxCell>
        <mxCell id="rpJfb1rqAlhAVGrmwUFo-12" style="edgeStyle=none;rounded=0;orthogonalLoop=1;jettySize=auto;html=1;exitX=1;exitY=1;exitDx=0;exitDy=0;entryX=0;entryY=0;entryDx=0;entryDy=0;endArrow=none;endFill=0;labelBackgroundColor=#283618;strokeColor=#DDA15E;fontColor=#FEFAE0;strokeWidth=2;shadow=1;" edge="1" parent="1" source="rpJfb1rqAlhAVGrmwUFo-1" target="rpJfb1rqAlhAVGrmwUFo-4">
          <mxGeometry relative="1" as="geometry" />
        </mxCell>
        <mxCell id="rpJfb1rqAlhAVGrmwUFo-1" value="0" style="ellipse;whiteSpace=wrap;html=1;aspect=fixed;fillColor=#BC6C25;strokeColor=#DDA15E;fontColor=#FEFAE0;strokeWidth=2;shadow=1;" vertex="1" parent="1">
          <mxGeometry x="170" y="160" width="40" height="40" as="geometry" />
        </mxCell>
        <mxCell id="rpJfb1rqAlhAVGrmwUFo-16" style="edgeStyle=none;rounded=0;orthogonalLoop=1;jettySize=auto;html=1;exitX=1;exitY=0;exitDx=0;exitDy=0;entryX=0;entryY=1;entryDx=0;entryDy=0;endArrow=none;endFill=0;labelBackgroundColor=#283618;strokeColor=#DDA15E;fontColor=#FEFAE0;strokeWidth=2;shadow=1;" edge="1" parent="1" source="rpJfb1rqAlhAVGrmwUFo-2" target="rpJfb1rqAlhAVGrmwUFo-5">
          <mxGeometry relative="1" as="geometry" />
        </mxCell>
        <mxCell id="rpJfb1rqAlhAVGrmwUFo-17" style="edgeStyle=none;rounded=0;orthogonalLoop=1;jettySize=auto;html=1;exitX=1;exitY=1;exitDx=0;exitDy=0;entryX=0;entryY=0;entryDx=0;entryDy=0;endArrow=none;endFill=0;labelBackgroundColor=#283618;strokeColor=#DDA15E;fontColor=#FEFAE0;strokeWidth=2;shadow=1;" edge="1" parent="1" source="rpJfb1rqAlhAVGrmwUFo-2" target="rpJfb1rqAlhAVGrmwUFo-6">
          <mxGeometry relative="1" as="geometry" />
        </mxCell>
        <mxCell id="rpJfb1rqAlhAVGrmwUFo-2" value="3" style="ellipse;whiteSpace=wrap;html=1;aspect=fixed;fillColor=#BC6C25;strokeColor=#DDA15E;fontColor=#FEFAE0;strokeWidth=2;shadow=1;" vertex="1" parent="1">
          <mxGeometry x="350" y="160" width="40" height="40" as="geometry" />
        </mxCell>
        <mxCell id="rpJfb1rqAlhAVGrmwUFo-14" style="edgeStyle=none;rounded=0;orthogonalLoop=1;jettySize=auto;html=1;exitX=1;exitY=1;exitDx=0;exitDy=0;entryX=0;entryY=0;entryDx=0;entryDy=0;endArrow=none;endFill=0;labelBackgroundColor=#283618;strokeColor=#DDA15E;fontColor=#FEFAE0;strokeWidth=2;shadow=1;" edge="1" parent="1" source="rpJfb1rqAlhAVGrmwUFo-3" target="rpJfb1rqAlhAVGrmwUFo-2">
          <mxGeometry relative="1" as="geometry" />
        </mxCell>
        <mxCell id="rpJfb1rqAlhAVGrmwUFo-3" value="1" style="ellipse;whiteSpace=wrap;html=1;aspect=fixed;fillColor=#BC6C25;strokeColor=#DDA15E;fontColor=#FEFAE0;strokeWidth=2;shadow=1;" vertex="1" parent="1">
          <mxGeometry x="260" y="80" width="40" height="40" as="geometry" />
        </mxCell>
        <mxCell id="rpJfb1rqAlhAVGrmwUFo-15" style="edgeStyle=none;rounded=0;orthogonalLoop=1;jettySize=auto;html=1;exitX=1;exitY=0;exitDx=0;exitDy=0;entryX=0;entryY=1;entryDx=0;entryDy=0;endArrow=none;endFill=0;labelBackgroundColor=#283618;strokeColor=#DDA15E;fontColor=#FEFAE0;strokeWidth=2;shadow=1;" edge="1" parent="1" source="rpJfb1rqAlhAVGrmwUFo-4" target="rpJfb1rqAlhAVGrmwUFo-2">
          <mxGeometry relative="1" as="geometry" />
        </mxCell>
        <mxCell id="rpJfb1rqAlhAVGrmwUFo-4" value="2" style="ellipse;whiteSpace=wrap;html=1;aspect=fixed;fillColor=#BC6C25;strokeColor=#DDA15E;fontColor=#FEFAE0;strokeWidth=2;shadow=1;" vertex="1" parent="1">
          <mxGeometry x="260" y="240" width="40" height="40" as="geometry" />
        </mxCell>
        <mxCell id="rpJfb1rqAlhAVGrmwUFo-19" style="edgeStyle=none;rounded=0;orthogonalLoop=1;jettySize=auto;html=1;exitX=1;exitY=1;exitDx=0;exitDy=0;entryX=0;entryY=0;entryDx=0;entryDy=0;endArrow=none;endFill=0;labelBackgroundColor=#283618;strokeColor=#DDA15E;fontColor=#FEFAE0;strokeWidth=2;shadow=1;" edge="1" parent="1" source="rpJfb1rqAlhAVGrmwUFo-5" target="rpJfb1rqAlhAVGrmwUFo-7">
          <mxGeometry relative="1" as="geometry" />
        </mxCell>
        <mxCell id="rpJfb1rqAlhAVGrmwUFo-5" value="4" style="ellipse;whiteSpace=wrap;html=1;aspect=fixed;fillColor=#BC6C25;strokeColor=#DDA15E;fontColor=#FEFAE0;strokeWidth=2;shadow=1;" vertex="1" parent="1">
          <mxGeometry x="450" y="100" width="40" height="40" as="geometry" />
        </mxCell>
        <mxCell id="rpJfb1rqAlhAVGrmwUFo-20" style="edgeStyle=none;rounded=0;orthogonalLoop=1;jettySize=auto;html=1;exitX=1;exitY=0;exitDx=0;exitDy=0;entryX=0;entryY=1;entryDx=0;entryDy=0;endArrow=none;endFill=0;labelBackgroundColor=#283618;strokeColor=#DDA15E;fontColor=#FEFAE0;strokeWidth=2;shadow=1;" edge="1" parent="1" source="rpJfb1rqAlhAVGrmwUFo-6" target="rpJfb1rqAlhAVGrmwUFo-7">
          <mxGeometry relative="1" as="geometry" />
        </mxCell>
        <mxCell id="rpJfb1rqAlhAVGrmwUFo-6" value="5" style="ellipse;whiteSpace=wrap;html=1;aspect=fixed;fillColor=#BC6C25;strokeColor=#DDA15E;fontColor=#FEFAE0;strokeWidth=2;shadow=1;" vertex="1" parent="1">
          <mxGeometry x="450" y="220" width="40" height="40" as="geometry" />
        </mxCell>
        <mxCell id="rpJfb1rqAlhAVGrmwUFo-21" style="edgeStyle=none;rounded=0;orthogonalLoop=1;jettySize=auto;html=1;exitX=1;exitY=0;exitDx=0;exitDy=0;entryX=0;entryY=1;entryDx=0;entryDy=0;endArrow=none;endFill=0;labelBackgroundColor=#283618;strokeColor=#DDA15E;fontColor=#FEFAE0;strokeWidth=2;shadow=1;" edge="1" parent="1" source="rpJfb1rqAlhAVGrmwUFo-7" target="rpJfb1rqAlhAVGrmwUFo-9">
          <mxGeometry relative="1" as="geometry" />
        </mxCell>
        <mxCell id="rpJfb1rqAlhAVGrmwUFo-22" style="edgeStyle=none;rounded=0;orthogonalLoop=1;jettySize=auto;html=1;exitX=1;exitY=1;exitDx=0;exitDy=0;entryX=0;entryY=0;entryDx=0;entryDy=0;endArrow=none;endFill=0;labelBackgroundColor=#283618;strokeColor=#DDA15E;fontColor=#FEFAE0;strokeWidth=2;shadow=1;" edge="1" parent="1" source="rpJfb1rqAlhAVGrmwUFo-7" target="rpJfb1rqAlhAVGrmwUFo-10">
          <mxGeometry relative="1" as="geometry" />
        </mxCell>
        <mxCell id="rpJfb1rqAlhAVGrmwUFo-7" value="6" style="ellipse;whiteSpace=wrap;html=1;aspect=fixed;fillColor=#BC6C25;strokeColor=#DDA15E;fontColor=#FEFAE0;strokeWidth=2;shadow=1;" vertex="1" parent="1">
          <mxGeometry x="540" y="160" width="40" height="40" as="geometry" />
        </mxCell>
        <mxCell id="rpJfb1rqAlhAVGrmwUFo-8" value="9" style="ellipse;whiteSpace=wrap;html=1;aspect=fixed;fillColor=#BC6C25;strokeColor=#DDA15E;fontColor=#FEFAE0;strokeWidth=2;shadow=1;" vertex="1" parent="1">
          <mxGeometry x="710" y="160" width="40" height="40" as="geometry" />
        </mxCell>
        <mxCell id="rpJfb1rqAlhAVGrmwUFo-23" style="edgeStyle=none;rounded=0;orthogonalLoop=1;jettySize=auto;html=1;exitX=1;exitY=1;exitDx=0;exitDy=0;entryX=0;entryY=0;entryDx=0;entryDy=0;endArrow=none;endFill=0;labelBackgroundColor=#283618;strokeColor=#DDA15E;fontColor=#FEFAE0;strokeWidth=2;shadow=1;" edge="1" parent="1" source="rpJfb1rqAlhAVGrmwUFo-9" target="rpJfb1rqAlhAVGrmwUFo-8">
          <mxGeometry relative="1" as="geometry" />
        </mxCell>
        <mxCell id="rpJfb1rqAlhAVGrmwUFo-9" value="7" style="ellipse;whiteSpace=wrap;html=1;aspect=fixed;fillColor=#BC6C25;strokeColor=#DDA15E;fontColor=#FEFAE0;strokeWidth=2;shadow=1;" vertex="1" parent="1">
          <mxGeometry x="630" y="80" width="40" height="40" as="geometry" />
        </mxCell>
        <mxCell id="rpJfb1rqAlhAVGrmwUFo-24" style="edgeStyle=none;rounded=0;orthogonalLoop=1;jettySize=auto;html=1;exitX=1;exitY=0;exitDx=0;exitDy=0;entryX=0;entryY=1;entryDx=0;entryDy=0;endArrow=none;endFill=0;labelBackgroundColor=#283618;strokeColor=#DDA15E;fontColor=#FEFAE0;strokeWidth=2;shadow=1;" edge="1" parent="1" source="rpJfb1rqAlhAVGrmwUFo-10" target="rpJfb1rqAlhAVGrmwUFo-8">
          <mxGeometry relative="1" as="geometry" />
        </mxCell>
        <mxCell id="rpJfb1rqAlhAVGrmwUFo-10" value="8" style="ellipse;whiteSpace=wrap;html=1;aspect=fixed;fillColor=#BC6C25;strokeColor=#DDA15E;fontColor=#FEFAE0;strokeWidth=2;shadow=1;" vertex="1" parent="1">
          <mxGeometry x="630" y="240" width="40" height="40" as="geometry" />
        </mxCell>
        <mxCell id="rpJfb1rqAlhAVGrmwUFo-25" value="1" style="text;html=1;align=center;verticalAlign=middle;resizable=0;points=[];autosize=1;strokeColor=none;fillColor=none;fontStyle=1;fontColor=#FEFAE0;strokeWidth=2;shadow=1;" vertex="1" parent="1">
          <mxGeometry x="220" y="120" width="20" height="20" as="geometry" />
        </mxCell>
        <mxCell id="rpJfb1rqAlhAVGrmwUFo-27" value="2" style="text;html=1;align=center;verticalAlign=middle;resizable=0;points=[];autosize=1;strokeColor=none;fillColor=none;fontStyle=1;fontColor=#FEFAE0;strokeWidth=2;shadow=1;" vertex="1" parent="1">
          <mxGeometry x="220" y="220" width="20" height="20" as="geometry" />
        </mxCell>
        <mxCell id="rpJfb1rqAlhAVGrmwUFo-28" value="3" style="text;html=1;align=center;verticalAlign=middle;resizable=0;points=[];autosize=1;strokeColor=none;fillColor=none;fontStyle=1;fontColor=#FEFAE0;strokeWidth=2;shadow=1;" vertex="1" parent="1">
          <mxGeometry x="330" y="120" width="20" height="20" as="geometry" />
        </mxCell>
        <mxCell id="rpJfb1rqAlhAVGrmwUFo-29" value="2" style="text;html=1;align=center;verticalAlign=middle;resizable=0;points=[];autosize=1;strokeColor=none;fillColor=none;fontStyle=1;fontColor=#FEFAE0;strokeWidth=2;shadow=1;" vertex="1" parent="1">
          <mxGeometry x="325" y="220" width="20" height="20" as="geometry" />
        </mxCell>
        <mxCell id="rpJfb1rqAlhAVGrmwUFo-30" value="3" style="text;html=1;align=center;verticalAlign=middle;resizable=0;points=[];autosize=1;strokeColor=none;fillColor=none;fontStyle=1;fontColor=#FEFAE0;strokeWidth=2;shadow=1;" vertex="1" parent="1">
          <mxGeometry x="580" y="120" width="20" height="20" as="geometry" />
        </mxCell>
        <mxCell id="rpJfb1rqAlhAVGrmwUFo-31" value="2" style="text;html=1;align=center;verticalAlign=middle;resizable=0;points=[];autosize=1;strokeColor=none;fillColor=none;fontStyle=1;fontColor=#FEFAE0;strokeWidth=2;shadow=1;" vertex="1" parent="1">
          <mxGeometry x="680" y="120" width="20" height="20" as="geometry" />
        </mxCell>
        <mxCell id="rpJfb1rqAlhAVGrmwUFo-32" value="1" style="text;html=1;align=center;verticalAlign=middle;resizable=0;points=[];autosize=1;strokeColor=none;fillColor=none;fontStyle=1;fontColor=#FEFAE0;strokeWidth=2;shadow=1;" vertex="1" parent="1">
          <mxGeometry x="590" y="220" width="20" height="20" as="geometry" />
        </mxCell>
        <mxCell id="rpJfb1rqAlhAVGrmwUFo-33" value="1" style="text;html=1;align=center;verticalAlign=middle;resizable=0;points=[];autosize=1;strokeColor=none;fillColor=none;fontStyle=1;fontColor=#FEFAE0;strokeWidth=2;shadow=1;" vertex="1" parent="1">
          <mxGeometry x="680" y="220" width="20" height="20" as="geometry" />
        </mxCell>
        <mxCell id="rpJfb1rqAlhAVGrmwUFo-34" value="5" style="text;html=1;align=center;verticalAlign=middle;resizable=0;points=[];autosize=1;strokeColor=none;fillColor=none;fontStyle=1;fontColor=#FEFAE0;strokeWidth=2;shadow=1;" vertex="1" parent="1">
          <mxGeometry x="400" y="130" width="20" height="20" as="geometry" />
        </mxCell>
        <mxCell id="rpJfb1rqAlhAVGrmwUFo-35" value="7" style="text;html=1;align=center;verticalAlign=middle;resizable=0;points=[];autosize=1;strokeColor=none;fillColor=none;fontStyle=1;fontColor=#FEFAE0;strokeWidth=2;shadow=1;" vertex="1" parent="1">
          <mxGeometry x="510" y="130" width="20" height="20" as="geometry" />
        </mxCell>
        <mxCell id="rpJfb1rqAlhAVGrmwUFo-37" value="6" style="text;html=1;align=center;verticalAlign=middle;resizable=0;points=[];autosize=1;strokeColor=none;fillColor=none;fontStyle=1;fontColor=#FEFAE0;strokeWidth=2;shadow=1;" vertex="1" parent="1">
          <mxGeometry x="410" y="210" width="20" height="20" as="geometry" />
        </mxCell>
        <mxCell id="rpJfb1rqAlhAVGrmwUFo-38" value="8" style="text;html=1;align=center;verticalAlign=middle;resizable=0;points=[];autosize=1;strokeColor=none;fillColor=none;fontStyle=1;fontColor=#FEFAE0;strokeWidth=2;shadow=1;" vertex="1" parent="1">
          <mxGeometry x="510" y="210" width="20" height="20" as="geometry" />
        </mxCell>
        <mxCell id="TPuEx1l_2TFStuVvRZmQ-1" value="cstutorial.org" style="text;html=1;align=center;verticalAlign=middle;resizable=0;points=[];autosize=1;strokeColor=none;fillColor=none;fontColor=#FEFAE0;" vertex="1" parent="1">
          <mxGeometry x="640" y="280" width="100" height="20" as="geometry" />
        </mxCell>
      </root>
    </mxGraphModel>
  </diagram>
  <diagram id="i1lLc3-ZbO3aXu2BivCF" name="Page-2">
    <mxGraphModel dx="832" dy="452" grid="1" gridSize="10" guides="1" tooltips="1" connect="1" arrows="1" fold="1" page="1" pageScale="1" pageWidth="650" pageHeight="400" background="#283618" math="0" shadow="0">
      <root>
        <mxCell id="0" />
        <mxCell id="1" parent="0" />
        <mxCell id="9AHhWs7r3wBFwr9gvkW8-1" style="edgeStyle=none;rounded=0;orthogonalLoop=1;jettySize=auto;html=1;exitX=1;exitY=0;exitDx=0;exitDy=0;entryX=0;entryY=1;entryDx=0;entryDy=0;endArrow=none;endFill=0;labelBackgroundColor=#283618;strokeColor=#DDA15E;fontColor=#FEFAE0;strokeWidth=2;shadow=1;" edge="1" source="9AHhWs7r3wBFwr9gvkW8-3" target="9AHhWs7r3wBFwr9gvkW8-8" parent="1">
          <mxGeometry relative="1" as="geometry" />
        </mxCell>
        <mxCell id="9AHhWs7r3wBFwr9gvkW8-2" style="edgeStyle=none;rounded=0;orthogonalLoop=1;jettySize=auto;html=1;exitX=1;exitY=1;exitDx=0;exitDy=0;entryX=0;entryY=0;entryDx=0;entryDy=0;endArrow=none;endFill=0;labelBackgroundColor=#283618;strokeColor=#DDA15E;fontColor=#FEFAE0;strokeWidth=2;shadow=1;" edge="1" source="9AHhWs7r3wBFwr9gvkW8-3" target="9AHhWs7r3wBFwr9gvkW8-10" parent="1">
          <mxGeometry relative="1" as="geometry" />
        </mxCell>
        <mxCell id="9AHhWs7r3wBFwr9gvkW8-3" value="0" style="ellipse;whiteSpace=wrap;html=1;aspect=fixed;fillColor=#BC6C25;strokeColor=#DDA15E;fontColor=#FEFAE0;strokeWidth=2;shadow=1;" vertex="1" parent="1">
          <mxGeometry x="80" y="180" width="40" height="40" as="geometry" />
        </mxCell>
        <mxCell id="9AHhWs7r3wBFwr9gvkW8-4" style="edgeStyle=none;rounded=0;orthogonalLoop=1;jettySize=auto;html=1;exitX=1;exitY=0;exitDx=0;exitDy=0;entryX=0;entryY=1;entryDx=0;entryDy=0;endArrow=none;endFill=0;labelBackgroundColor=#283618;strokeColor=#DDA15E;fontColor=#FEFAE0;strokeWidth=2;shadow=1;" edge="1" source="9AHhWs7r3wBFwr9gvkW8-6" target="9AHhWs7r3wBFwr9gvkW8-12" parent="1">
          <mxGeometry relative="1" as="geometry" />
        </mxCell>
        <mxCell id="9AHhWs7r3wBFwr9gvkW8-5" style="edgeStyle=none;rounded=0;orthogonalLoop=1;jettySize=auto;html=1;exitX=1;exitY=1;exitDx=0;exitDy=0;entryX=0;entryY=0;entryDx=0;entryDy=0;endArrow=none;endFill=0;labelBackgroundColor=#283618;strokeColor=#DDA15E;fontColor=#FEFAE0;strokeWidth=2;shadow=1;" edge="1" source="9AHhWs7r3wBFwr9gvkW8-6" target="9AHhWs7r3wBFwr9gvkW8-14" parent="1">
          <mxGeometry relative="1" as="geometry" />
        </mxCell>
        <mxCell id="9AHhWs7r3wBFwr9gvkW8-6" value="3" style="ellipse;whiteSpace=wrap;html=1;aspect=fixed;fillColor=#BC6C25;strokeColor=#DDA15E;fontColor=#FEFAE0;strokeWidth=2;shadow=1;" vertex="1" parent="1">
          <mxGeometry x="260" y="180" width="40" height="40" as="geometry" />
        </mxCell>
        <mxCell id="9AHhWs7r3wBFwr9gvkW8-8" value="1" style="ellipse;whiteSpace=wrap;html=1;aspect=fixed;fillColor=#BC6C25;strokeColor=#DDA15E;fontColor=#FEFAE0;strokeWidth=2;shadow=1;" vertex="1" parent="1">
          <mxGeometry x="170" y="100" width="40" height="40" as="geometry" />
        </mxCell>
        <mxCell id="9AHhWs7r3wBFwr9gvkW8-9" style="edgeStyle=none;rounded=0;orthogonalLoop=1;jettySize=auto;html=1;exitX=1;exitY=0;exitDx=0;exitDy=0;entryX=0;entryY=1;entryDx=0;entryDy=0;endArrow=none;endFill=0;labelBackgroundColor=#283618;strokeColor=#DDA15E;fontColor=#FEFAE0;strokeWidth=2;shadow=1;" edge="1" source="9AHhWs7r3wBFwr9gvkW8-10" target="9AHhWs7r3wBFwr9gvkW8-6" parent="1">
          <mxGeometry relative="1" as="geometry" />
        </mxCell>
        <mxCell id="9AHhWs7r3wBFwr9gvkW8-10" value="2" style="ellipse;whiteSpace=wrap;html=1;aspect=fixed;fillColor=#BC6C25;strokeColor=#DDA15E;fontColor=#FEFAE0;strokeWidth=2;shadow=1;" vertex="1" parent="1">
          <mxGeometry x="170" y="260" width="40" height="40" as="geometry" />
        </mxCell>
        <mxCell id="9AHhWs7r3wBFwr9gvkW8-11" style="edgeStyle=none;rounded=0;orthogonalLoop=1;jettySize=auto;html=1;exitX=1;exitY=1;exitDx=0;exitDy=0;entryX=0;entryY=0;entryDx=0;entryDy=0;endArrow=none;endFill=0;labelBackgroundColor=#283618;strokeColor=#DDA15E;fontColor=#FEFAE0;strokeWidth=2;shadow=1;" edge="1" source="9AHhWs7r3wBFwr9gvkW8-12" target="9AHhWs7r3wBFwr9gvkW8-17" parent="1">
          <mxGeometry relative="1" as="geometry" />
        </mxCell>
        <mxCell id="9AHhWs7r3wBFwr9gvkW8-12" value="4" style="ellipse;whiteSpace=wrap;html=1;aspect=fixed;fillColor=#BC6C25;strokeColor=#DDA15E;fontColor=#FEFAE0;strokeWidth=2;shadow=1;" vertex="1" parent="1">
          <mxGeometry x="360" y="120" width="40" height="40" as="geometry" />
        </mxCell>
        <mxCell id="9AHhWs7r3wBFwr9gvkW8-14" value="5" style="ellipse;whiteSpace=wrap;html=1;aspect=fixed;fillColor=#BC6C25;strokeColor=#DDA15E;fontColor=#FEFAE0;strokeWidth=2;shadow=1;" vertex="1" parent="1">
          <mxGeometry x="360" y="240" width="40" height="40" as="geometry" />
        </mxCell>
        <mxCell id="9AHhWs7r3wBFwr9gvkW8-16" style="edgeStyle=none;rounded=0;orthogonalLoop=1;jettySize=auto;html=1;exitX=1;exitY=1;exitDx=0;exitDy=0;entryX=0;entryY=0;entryDx=0;entryDy=0;endArrow=none;endFill=0;labelBackgroundColor=#283618;strokeColor=#DDA15E;fontColor=#FEFAE0;strokeWidth=2;shadow=1;" edge="1" source="9AHhWs7r3wBFwr9gvkW8-17" target="9AHhWs7r3wBFwr9gvkW8-22" parent="1">
          <mxGeometry relative="1" as="geometry" />
        </mxCell>
        <mxCell id="9AHhWs7r3wBFwr9gvkW8-17" value="6" style="ellipse;whiteSpace=wrap;html=1;aspect=fixed;fillColor=#BC6C25;strokeColor=#DDA15E;fontColor=#FEFAE0;strokeWidth=2;shadow=1;" vertex="1" parent="1">
          <mxGeometry x="450" y="180" width="40" height="40" as="geometry" />
        </mxCell>
        <mxCell id="9AHhWs7r3wBFwr9gvkW8-18" value="9" style="ellipse;whiteSpace=wrap;html=1;aspect=fixed;fillColor=#BC6C25;strokeColor=#DDA15E;fontColor=#FEFAE0;strokeWidth=2;shadow=1;" vertex="1" parent="1">
          <mxGeometry x="620" y="180" width="40" height="40" as="geometry" />
        </mxCell>
        <mxCell id="9AHhWs7r3wBFwr9gvkW8-19" style="edgeStyle=none;rounded=0;orthogonalLoop=1;jettySize=auto;html=1;exitX=1;exitY=1;exitDx=0;exitDy=0;entryX=0;entryY=0;entryDx=0;entryDy=0;endArrow=none;endFill=0;labelBackgroundColor=#283618;strokeColor=#DDA15E;fontColor=#FEFAE0;strokeWidth=2;shadow=1;" edge="1" source="9AHhWs7r3wBFwr9gvkW8-20" target="9AHhWs7r3wBFwr9gvkW8-18" parent="1">
          <mxGeometry relative="1" as="geometry" />
        </mxCell>
        <mxCell id="9AHhWs7r3wBFwr9gvkW8-20" value="7" style="ellipse;whiteSpace=wrap;html=1;aspect=fixed;fillColor=#BC6C25;strokeColor=#DDA15E;fontColor=#FEFAE0;strokeWidth=2;shadow=1;" vertex="1" parent="1">
          <mxGeometry x="540" y="100" width="40" height="40" as="geometry" />
        </mxCell>
        <mxCell id="9AHhWs7r3wBFwr9gvkW8-21" style="edgeStyle=none;rounded=0;orthogonalLoop=1;jettySize=auto;html=1;exitX=1;exitY=0;exitDx=0;exitDy=0;entryX=0;entryY=1;entryDx=0;entryDy=0;endArrow=none;endFill=0;labelBackgroundColor=#283618;strokeColor=#DDA15E;fontColor=#FEFAE0;strokeWidth=2;shadow=1;" edge="1" source="9AHhWs7r3wBFwr9gvkW8-22" target="9AHhWs7r3wBFwr9gvkW8-18" parent="1">
          <mxGeometry relative="1" as="geometry" />
        </mxCell>
        <mxCell id="9AHhWs7r3wBFwr9gvkW8-22" value="8" style="ellipse;whiteSpace=wrap;html=1;aspect=fixed;fillColor=#BC6C25;strokeColor=#DDA15E;fontColor=#FEFAE0;strokeWidth=2;shadow=1;" vertex="1" parent="1">
          <mxGeometry x="540" y="260" width="40" height="40" as="geometry" />
        </mxCell>
        <mxCell id="9AHhWs7r3wBFwr9gvkW8-23" value="1" style="text;html=1;align=center;verticalAlign=middle;resizable=0;points=[];autosize=1;strokeColor=none;fillColor=none;fontStyle=1;fontColor=#FEFAE0;strokeWidth=2;shadow=1;" vertex="1" parent="1">
          <mxGeometry x="130" y="140" width="20" height="20" as="geometry" />
        </mxCell>
        <mxCell id="9AHhWs7r3wBFwr9gvkW8-24" value="2" style="text;html=1;align=center;verticalAlign=middle;resizable=0;points=[];autosize=1;strokeColor=none;fillColor=none;fontStyle=1;fontColor=#FEFAE0;strokeWidth=2;shadow=1;" vertex="1" parent="1">
          <mxGeometry x="130" y="240" width="20" height="20" as="geometry" />
        </mxCell>
        <mxCell id="9AHhWs7r3wBFwr9gvkW8-26" value="2" style="text;html=1;align=center;verticalAlign=middle;resizable=0;points=[];autosize=1;strokeColor=none;fillColor=none;fontStyle=1;fontColor=#FEFAE0;strokeWidth=2;shadow=1;" vertex="1" parent="1">
          <mxGeometry x="235" y="240" width="20" height="20" as="geometry" />
        </mxCell>
        <mxCell id="9AHhWs7r3wBFwr9gvkW8-28" value="2" style="text;html=1;align=center;verticalAlign=middle;resizable=0;points=[];autosize=1;strokeColor=none;fillColor=none;fontStyle=1;fontColor=#FEFAE0;strokeWidth=2;shadow=1;" vertex="1" parent="1">
          <mxGeometry x="590" y="140" width="20" height="20" as="geometry" />
        </mxCell>
        <mxCell id="9AHhWs7r3wBFwr9gvkW8-29" value="1" style="text;html=1;align=center;verticalAlign=middle;resizable=0;points=[];autosize=1;strokeColor=none;fillColor=none;fontStyle=1;fontColor=#FEFAE0;strokeWidth=2;shadow=1;" vertex="1" parent="1">
          <mxGeometry x="500" y="240" width="20" height="20" as="geometry" />
        </mxCell>
        <mxCell id="9AHhWs7r3wBFwr9gvkW8-30" value="1" style="text;html=1;align=center;verticalAlign=middle;resizable=0;points=[];autosize=1;strokeColor=none;fillColor=none;fontStyle=1;fontColor=#FEFAE0;strokeWidth=2;shadow=1;" vertex="1" parent="1">
          <mxGeometry x="590" y="240" width="20" height="20" as="geometry" />
        </mxCell>
        <mxCell id="9AHhWs7r3wBFwr9gvkW8-31" value="5" style="text;html=1;align=center;verticalAlign=middle;resizable=0;points=[];autosize=1;strokeColor=none;fillColor=none;fontStyle=1;fontColor=#FEFAE0;strokeWidth=2;shadow=1;" vertex="1" parent="1">
          <mxGeometry x="310" y="150" width="20" height="20" as="geometry" />
        </mxCell>
        <mxCell id="9AHhWs7r3wBFwr9gvkW8-32" value="7" style="text;html=1;align=center;verticalAlign=middle;resizable=0;points=[];autosize=1;strokeColor=none;fillColor=none;fontStyle=1;fontColor=#FEFAE0;strokeWidth=2;shadow=1;" vertex="1" parent="1">
          <mxGeometry x="420" y="150" width="20" height="20" as="geometry" />
        </mxCell>
        <mxCell id="9AHhWs7r3wBFwr9gvkW8-33" value="6" style="text;html=1;align=center;verticalAlign=middle;resizable=0;points=[];autosize=1;strokeColor=none;fillColor=none;fontStyle=1;fontColor=#FEFAE0;strokeWidth=2;shadow=1;" vertex="1" parent="1">
          <mxGeometry x="320" y="230" width="20" height="20" as="geometry" />
        </mxCell>
        <mxCell id="uOyS2E_5pPwxUi8o__01-1" value="cstutorial.org" style="text;html=1;align=center;verticalAlign=middle;resizable=0;points=[];autosize=1;strokeColor=none;fillColor=none;fontColor=#FEFAE0;" vertex="1" parent="1">
          <mxGeometry x="560" y="300" width="100" height="20" as="geometry" />
        </mxCell>
      </root>
    </mxGraphModel>
  </diagram>
  <diagram id="kBDzYzgzwVlOtyiRc8x2" name="Page-3">
    <mxGraphModel dx="832" dy="452" grid="1" gridSize="10" guides="1" tooltips="1" connect="1" arrows="1" fold="1" page="1" pageScale="1" pageWidth="650" pageHeight="400" background="#283618" math="0" shadow="0">
      <root>
        <mxCell id="0" />
        <mxCell id="1" parent="0" />
        <mxCell id="u2L4rnYO1LDuhzbMx1bH-1" style="edgeStyle=none;rounded=0;orthogonalLoop=1;jettySize=auto;html=1;exitX=1;exitY=0;exitDx=0;exitDy=0;entryX=0;entryY=1;entryDx=0;entryDy=0;endArrow=none;endFill=0;labelBackgroundColor=#283618;strokeColor=#DDA15E;fontColor=#FEFAE0;strokeWidth=2;shadow=1;" edge="1" parent="1" source="u2L4rnYO1LDuhzbMx1bH-3" target="u2L4rnYO1LDuhzbMx1bH-6">
          <mxGeometry relative="1" as="geometry" />
        </mxCell>
        <mxCell id="u2L4rnYO1LDuhzbMx1bH-2" style="edgeStyle=none;rounded=0;orthogonalLoop=1;jettySize=auto;html=1;exitX=1;exitY=1;exitDx=0;exitDy=0;entryX=0;entryY=0;entryDx=0;entryDy=0;endArrow=none;endFill=0;labelBackgroundColor=#283618;strokeColor=#DDA15E;fontColor=#FEFAE0;strokeWidth=2;shadow=1;" edge="1" parent="1" source="u2L4rnYO1LDuhzbMx1bH-3" target="u2L4rnYO1LDuhzbMx1bH-8">
          <mxGeometry relative="1" as="geometry" />
        </mxCell>
        <mxCell id="u2L4rnYO1LDuhzbMx1bH-3" value="0" style="ellipse;whiteSpace=wrap;html=1;aspect=fixed;fillColor=#BC6C25;strokeColor=#DDA15E;fontColor=#FEFAE0;strokeWidth=2;shadow=1;" vertex="1" parent="1">
          <mxGeometry x="170" y="160" width="40" height="40" as="geometry" />
        </mxCell>
        <mxCell id="u2L4rnYO1LDuhzbMx1bH-4" value="3" style="ellipse;whiteSpace=wrap;html=1;aspect=fixed;fillColor=#BC6C25;strokeColor=#DDA15E;fontColor=#FEFAE0;strokeWidth=2;shadow=1;" vertex="1" parent="1">
          <mxGeometry x="350" y="160" width="40" height="40" as="geometry" />
        </mxCell>
        <mxCell id="u2L4rnYO1LDuhzbMx1bH-5" style="edgeStyle=none;rounded=0;orthogonalLoop=1;jettySize=auto;html=1;exitX=1;exitY=1;exitDx=0;exitDy=0;entryX=0;entryY=0;entryDx=0;entryDy=0;endArrow=none;endFill=0;labelBackgroundColor=#283618;strokeColor=#DDA15E;fontColor=#FEFAE0;strokeWidth=2;shadow=1;dashed=1;" edge="1" parent="1" source="u2L4rnYO1LDuhzbMx1bH-6" target="u2L4rnYO1LDuhzbMx1bH-4">
          <mxGeometry relative="1" as="geometry" />
        </mxCell>
        <mxCell id="u2L4rnYO1LDuhzbMx1bH-6" value="1" style="ellipse;whiteSpace=wrap;html=1;aspect=fixed;fillColor=#BC6C25;strokeColor=#DDA15E;fontColor=#FEFAE0;strokeWidth=2;shadow=1;" vertex="1" parent="1">
          <mxGeometry x="260" y="80" width="40" height="40" as="geometry" />
        </mxCell>
        <mxCell id="u2L4rnYO1LDuhzbMx1bH-7" style="edgeStyle=none;rounded=0;orthogonalLoop=1;jettySize=auto;html=1;exitX=1;exitY=0;exitDx=0;exitDy=0;entryX=0;entryY=1;entryDx=0;entryDy=0;endArrow=none;endFill=0;labelBackgroundColor=#283618;strokeColor=#DDA15E;fontColor=#FEFAE0;strokeWidth=2;shadow=1;" edge="1" parent="1" source="u2L4rnYO1LDuhzbMx1bH-8" target="u2L4rnYO1LDuhzbMx1bH-4">
          <mxGeometry relative="1" as="geometry" />
        </mxCell>
        <mxCell id="u2L4rnYO1LDuhzbMx1bH-8" value="2" style="ellipse;whiteSpace=wrap;html=1;aspect=fixed;fillColor=#BC6C25;strokeColor=#DDA15E;fontColor=#FEFAE0;strokeWidth=2;shadow=1;" vertex="1" parent="1">
          <mxGeometry x="260" y="240" width="40" height="40" as="geometry" />
        </mxCell>
        <mxCell id="u2L4rnYO1LDuhzbMx1bH-9" value="1" style="text;html=1;align=center;verticalAlign=middle;resizable=0;points=[];autosize=1;strokeColor=none;fillColor=none;fontStyle=1;fontColor=#FEFAE0;strokeWidth=2;shadow=1;" vertex="1" parent="1">
          <mxGeometry x="220" y="120" width="20" height="20" as="geometry" />
        </mxCell>
        <mxCell id="u2L4rnYO1LDuhzbMx1bH-10" value="2" style="text;html=1;align=center;verticalAlign=middle;resizable=0;points=[];autosize=1;strokeColor=none;fillColor=none;fontStyle=1;fontColor=#FEFAE0;strokeWidth=2;shadow=1;" vertex="1" parent="1">
          <mxGeometry x="220" y="220" width="20" height="20" as="geometry" />
        </mxCell>
        <mxCell id="u2L4rnYO1LDuhzbMx1bH-11" value="3" style="text;html=1;align=center;verticalAlign=middle;resizable=0;points=[];autosize=1;strokeColor=none;fillColor=none;fontStyle=1;fontColor=#FEFAE0;strokeWidth=2;shadow=1;" vertex="1" parent="1">
          <mxGeometry x="330" y="120" width="20" height="20" as="geometry" />
        </mxCell>
        <mxCell id="u2L4rnYO1LDuhzbMx1bH-12" value="2" style="text;html=1;align=center;verticalAlign=middle;resizable=0;points=[];autosize=1;strokeColor=none;fillColor=none;fontStyle=1;fontColor=#FEFAE0;strokeWidth=2;shadow=1;" vertex="1" parent="1">
          <mxGeometry x="325" y="220" width="20" height="20" as="geometry" />
        </mxCell>
        <mxCell id="TeAwlsvk6cxDMQjbQDtE-1" value="cstutorial.org" style="text;html=1;align=center;verticalAlign=middle;resizable=0;points=[];autosize=1;strokeColor=none;fillColor=none;fontColor=#FEFAE0;" vertex="1" parent="1">
          <mxGeometry x="290" y="280" width="100" height="20" as="geometry" />
        </mxCell>
      </root>
    </mxGraphModel>
  </diagram>
  <diagram id="j0QMKJcsjxHZohFhRyhB" name="Page-4">
    <mxGraphModel dx="832" dy="452" grid="1" gridSize="10" guides="1" tooltips="1" connect="1" arrows="1" fold="1" page="1" pageScale="1" pageWidth="650" pageHeight="400" background="#283618" math="0" shadow="0">
      <root>
        <mxCell id="0" />
        <mxCell id="1" parent="0" />
        <mxCell id="sbPA_439gmbJsprlQdgV-1" style="edgeStyle=none;rounded=0;orthogonalLoop=1;jettySize=auto;html=1;exitX=1;exitY=0;exitDx=0;exitDy=0;entryX=0;entryY=1;entryDx=0;entryDy=0;endArrow=none;endFill=0;labelBackgroundColor=#283618;strokeColor=#DDA15E;fontColor=#FEFAE0;strokeWidth=2;shadow=1;" edge="1" parent="1" source="sbPA_439gmbJsprlQdgV-3" target="sbPA_439gmbJsprlQdgV-7">
          <mxGeometry relative="1" as="geometry" />
        </mxCell>
        <mxCell id="sbPA_439gmbJsprlQdgV-2" style="edgeStyle=none;rounded=0;orthogonalLoop=1;jettySize=auto;html=1;exitX=1;exitY=1;exitDx=0;exitDy=0;entryX=0;entryY=0;entryDx=0;entryDy=0;endArrow=none;endFill=0;labelBackgroundColor=#283618;strokeColor=#DDA15E;fontColor=#FEFAE0;strokeWidth=2;shadow=1;" edge="1" parent="1" source="sbPA_439gmbJsprlQdgV-3" target="sbPA_439gmbJsprlQdgV-9">
          <mxGeometry relative="1" as="geometry" />
        </mxCell>
        <mxCell id="sbPA_439gmbJsprlQdgV-3" value="0" style="ellipse;whiteSpace=wrap;html=1;aspect=fixed;fillColor=#BC6C25;strokeColor=#DDA15E;fontColor=#FEFAE0;strokeWidth=2;shadow=1;" vertex="1" parent="1">
          <mxGeometry x="80" y="180" width="40" height="40" as="geometry" />
        </mxCell>
        <mxCell id="sbPA_439gmbJsprlQdgV-4" style="edgeStyle=none;rounded=0;orthogonalLoop=1;jettySize=auto;html=1;exitX=1;exitY=0;exitDx=0;exitDy=0;entryX=0;entryY=1;entryDx=0;entryDy=0;endArrow=none;endFill=0;labelBackgroundColor=#283618;strokeColor=#DDA15E;fontColor=#FEFAE0;strokeWidth=2;shadow=1;" edge="1" parent="1" source="sbPA_439gmbJsprlQdgV-6" target="sbPA_439gmbJsprlQdgV-11">
          <mxGeometry relative="1" as="geometry" />
        </mxCell>
        <mxCell id="sbPA_439gmbJsprlQdgV-5" style="edgeStyle=none;rounded=0;orthogonalLoop=1;jettySize=auto;html=1;exitX=1;exitY=1;exitDx=0;exitDy=0;entryX=0;entryY=0;entryDx=0;entryDy=0;endArrow=none;endFill=0;labelBackgroundColor=#283618;strokeColor=#DDA15E;fontColor=#FEFAE0;strokeWidth=2;shadow=1;" edge="1" parent="1" source="sbPA_439gmbJsprlQdgV-6" target="sbPA_439gmbJsprlQdgV-12">
          <mxGeometry relative="1" as="geometry" />
        </mxCell>
        <mxCell id="sbPA_439gmbJsprlQdgV-6" value="3" style="ellipse;whiteSpace=wrap;html=1;aspect=fixed;fillColor=#BC6C25;strokeColor=#DDA15E;fontColor=#FEFAE0;strokeWidth=2;shadow=1;" vertex="1" parent="1">
          <mxGeometry x="260" y="180" width="40" height="40" as="geometry" />
        </mxCell>
        <mxCell id="sbPA_439gmbJsprlQdgV-7" value="1" style="ellipse;whiteSpace=wrap;html=1;aspect=fixed;fillColor=#BC6C25;strokeColor=#DDA15E;fontColor=#FEFAE0;strokeWidth=2;shadow=1;" vertex="1" parent="1">
          <mxGeometry x="170" y="100" width="40" height="40" as="geometry" />
        </mxCell>
        <mxCell id="sbPA_439gmbJsprlQdgV-8" style="edgeStyle=none;rounded=0;orthogonalLoop=1;jettySize=auto;html=1;exitX=1;exitY=0;exitDx=0;exitDy=0;entryX=0;entryY=1;entryDx=0;entryDy=0;endArrow=none;endFill=0;labelBackgroundColor=#283618;strokeColor=#DDA15E;fontColor=#FEFAE0;strokeWidth=2;shadow=1;" edge="1" parent="1" source="sbPA_439gmbJsprlQdgV-9" target="sbPA_439gmbJsprlQdgV-6">
          <mxGeometry relative="1" as="geometry" />
        </mxCell>
        <mxCell id="sbPA_439gmbJsprlQdgV-9" value="2" style="ellipse;whiteSpace=wrap;html=1;aspect=fixed;fillColor=#BC6C25;strokeColor=#DDA15E;fontColor=#FEFAE0;strokeWidth=2;shadow=1;" vertex="1" parent="1">
          <mxGeometry x="170" y="260" width="40" height="40" as="geometry" />
        </mxCell>
        <mxCell id="sbPA_439gmbJsprlQdgV-10" style="edgeStyle=none;rounded=0;orthogonalLoop=1;jettySize=auto;html=1;exitX=1;exitY=1;exitDx=0;exitDy=0;entryX=0;entryY=0;entryDx=0;entryDy=0;endArrow=none;endFill=0;labelBackgroundColor=#283618;strokeColor=#DDA15E;fontColor=#FEFAE0;strokeWidth=2;shadow=1;dashed=1;" edge="1" parent="1" source="sbPA_439gmbJsprlQdgV-11" target="sbPA_439gmbJsprlQdgV-14">
          <mxGeometry relative="1" as="geometry" />
        </mxCell>
        <mxCell id="sbPA_439gmbJsprlQdgV-11" value="4" style="ellipse;whiteSpace=wrap;html=1;aspect=fixed;fillColor=#BC6C25;strokeColor=#DDA15E;fontColor=#FEFAE0;strokeWidth=2;shadow=1;" vertex="1" parent="1">
          <mxGeometry x="360" y="120" width="40" height="40" as="geometry" />
        </mxCell>
        <mxCell id="sbPA_439gmbJsprlQdgV-12" value="5" style="ellipse;whiteSpace=wrap;html=1;aspect=fixed;fillColor=#BC6C25;strokeColor=#DDA15E;fontColor=#FEFAE0;strokeWidth=2;shadow=1;" vertex="1" parent="1">
          <mxGeometry x="360" y="240" width="40" height="40" as="geometry" />
        </mxCell>
        <mxCell id="sbPA_439gmbJsprlQdgV-13" style="edgeStyle=none;rounded=0;orthogonalLoop=1;jettySize=auto;html=1;exitX=1;exitY=1;exitDx=0;exitDy=0;entryX=0;entryY=0;entryDx=0;entryDy=0;endArrow=none;endFill=0;labelBackgroundColor=#283618;strokeColor=#DDA15E;fontColor=#FEFAE0;strokeWidth=2;shadow=1;" edge="1" parent="1" source="sbPA_439gmbJsprlQdgV-14" target="sbPA_439gmbJsprlQdgV-19">
          <mxGeometry relative="1" as="geometry" />
        </mxCell>
        <mxCell id="sbPA_439gmbJsprlQdgV-14" value="6" style="ellipse;whiteSpace=wrap;html=1;aspect=fixed;fillColor=#BC6C25;strokeColor=#DDA15E;fontColor=#FEFAE0;strokeWidth=2;shadow=1;" vertex="1" parent="1">
          <mxGeometry x="450" y="180" width="40" height="40" as="geometry" />
        </mxCell>
        <mxCell id="sbPA_439gmbJsprlQdgV-15" value="9" style="ellipse;whiteSpace=wrap;html=1;aspect=fixed;fillColor=#BC6C25;strokeColor=#DDA15E;fontColor=#FEFAE0;strokeWidth=2;shadow=1;" vertex="1" parent="1">
          <mxGeometry x="620" y="180" width="40" height="40" as="geometry" />
        </mxCell>
        <mxCell id="sbPA_439gmbJsprlQdgV-16" style="edgeStyle=none;rounded=0;orthogonalLoop=1;jettySize=auto;html=1;exitX=1;exitY=1;exitDx=0;exitDy=0;entryX=0;entryY=0;entryDx=0;entryDy=0;endArrow=none;endFill=0;labelBackgroundColor=#283618;strokeColor=#DDA15E;fontColor=#FEFAE0;strokeWidth=2;shadow=1;" edge="1" parent="1" source="sbPA_439gmbJsprlQdgV-17" target="sbPA_439gmbJsprlQdgV-15">
          <mxGeometry relative="1" as="geometry" />
        </mxCell>
        <mxCell id="sbPA_439gmbJsprlQdgV-17" value="7" style="ellipse;whiteSpace=wrap;html=1;aspect=fixed;fillColor=#BC6C25;strokeColor=#DDA15E;fontColor=#FEFAE0;strokeWidth=2;shadow=1;" vertex="1" parent="1">
          <mxGeometry x="540" y="100" width="40" height="40" as="geometry" />
        </mxCell>
        <mxCell id="sbPA_439gmbJsprlQdgV-18" style="edgeStyle=none;rounded=0;orthogonalLoop=1;jettySize=auto;html=1;exitX=1;exitY=0;exitDx=0;exitDy=0;entryX=0;entryY=1;entryDx=0;entryDy=0;endArrow=none;endFill=0;labelBackgroundColor=#283618;strokeColor=#DDA15E;fontColor=#FEFAE0;strokeWidth=2;shadow=1;" edge="1" parent="1" source="sbPA_439gmbJsprlQdgV-19" target="sbPA_439gmbJsprlQdgV-15">
          <mxGeometry relative="1" as="geometry" />
        </mxCell>
        <mxCell id="sbPA_439gmbJsprlQdgV-19" value="8" style="ellipse;whiteSpace=wrap;html=1;aspect=fixed;fillColor=#BC6C25;strokeColor=#DDA15E;fontColor=#FEFAE0;strokeWidth=2;shadow=1;" vertex="1" parent="1">
          <mxGeometry x="540" y="260" width="40" height="40" as="geometry" />
        </mxCell>
        <mxCell id="sbPA_439gmbJsprlQdgV-20" value="1" style="text;html=1;align=center;verticalAlign=middle;resizable=0;points=[];autosize=1;strokeColor=none;fillColor=none;fontStyle=1;fontColor=#FEFAE0;strokeWidth=2;shadow=1;" vertex="1" parent="1">
          <mxGeometry x="130" y="140" width="20" height="20" as="geometry" />
        </mxCell>
        <mxCell id="sbPA_439gmbJsprlQdgV-21" value="2" style="text;html=1;align=center;verticalAlign=middle;resizable=0;points=[];autosize=1;strokeColor=none;fillColor=none;fontStyle=1;fontColor=#FEFAE0;strokeWidth=2;shadow=1;" vertex="1" parent="1">
          <mxGeometry x="130" y="240" width="20" height="20" as="geometry" />
        </mxCell>
        <mxCell id="sbPA_439gmbJsprlQdgV-22" value="2" style="text;html=1;align=center;verticalAlign=middle;resizable=0;points=[];autosize=1;strokeColor=none;fillColor=none;fontStyle=1;fontColor=#FEFAE0;strokeWidth=2;shadow=1;" vertex="1" parent="1">
          <mxGeometry x="235" y="240" width="20" height="20" as="geometry" />
        </mxCell>
        <mxCell id="sbPA_439gmbJsprlQdgV-23" value="2" style="text;html=1;align=center;verticalAlign=middle;resizable=0;points=[];autosize=1;strokeColor=none;fillColor=none;fontStyle=1;fontColor=#FEFAE0;strokeWidth=2;shadow=1;" vertex="1" parent="1">
          <mxGeometry x="590" y="140" width="20" height="20" as="geometry" />
        </mxCell>
        <mxCell id="sbPA_439gmbJsprlQdgV-24" value="1" style="text;html=1;align=center;verticalAlign=middle;resizable=0;points=[];autosize=1;strokeColor=none;fillColor=none;fontStyle=1;fontColor=#FEFAE0;strokeWidth=2;shadow=1;" vertex="1" parent="1">
          <mxGeometry x="500" y="240" width="20" height="20" as="geometry" />
        </mxCell>
        <mxCell id="sbPA_439gmbJsprlQdgV-25" value="1" style="text;html=1;align=center;verticalAlign=middle;resizable=0;points=[];autosize=1;strokeColor=none;fillColor=none;fontStyle=1;fontColor=#FEFAE0;strokeWidth=2;shadow=1;" vertex="1" parent="1">
          <mxGeometry x="590" y="240" width="20" height="20" as="geometry" />
        </mxCell>
        <mxCell id="sbPA_439gmbJsprlQdgV-26" value="5" style="text;html=1;align=center;verticalAlign=middle;resizable=0;points=[];autosize=1;strokeColor=none;fillColor=none;fontStyle=1;fontColor=#FEFAE0;strokeWidth=2;shadow=1;" vertex="1" parent="1">
          <mxGeometry x="310" y="150" width="20" height="20" as="geometry" />
        </mxCell>
        <mxCell id="sbPA_439gmbJsprlQdgV-27" value="7" style="text;html=1;align=center;verticalAlign=middle;resizable=0;points=[];autosize=1;strokeColor=none;fillColor=none;fontStyle=1;fontColor=#FEFAE0;strokeWidth=2;shadow=1;" vertex="1" parent="1">
          <mxGeometry x="420" y="150" width="20" height="20" as="geometry" />
        </mxCell>
        <mxCell id="sbPA_439gmbJsprlQdgV-28" value="6" style="text;html=1;align=center;verticalAlign=middle;resizable=0;points=[];autosize=1;strokeColor=none;fillColor=none;fontStyle=1;fontColor=#FEFAE0;strokeWidth=2;shadow=1;" vertex="1" parent="1">
          <mxGeometry x="320" y="230" width="20" height="20" as="geometry" />
        </mxCell>
        <mxCell id="sbPA_439gmbJsprlQdgV-29" value="cstutorial.org" style="text;html=1;align=center;verticalAlign=middle;resizable=0;points=[];autosize=1;strokeColor=none;fillColor=none;fontColor=#FEFAE0;" vertex="1" parent="1">
          <mxGeometry x="560" y="300" width="100" height="20" as="geometry" />
        </mxCell>
      </root>
    </mxGraphModel>
  </diagram>
</mxfile>
